<?xml version="1.0" encoding="iso-8859-1"?>
<!-- Generator: Adobe Illustrator 19.0.0, SVG Export Plug-In . SVG Version: 6.00 Build 0)  -->
<svg version="1.1" id="Layer_1" xmlns="http://www.w3.org/2000/svg" xmlns:xlink="http://www.w3.org/1999/xlink" x="0px" y="0px"
	 viewBox="0 0 512 512" style="enable-background:new 0 0 512 512;" xml:space="preserve">
<g>
	<g>
		<path d="M152.416,304.162c-2.889-4.836-9.152-6.414-13.986-3.525c-44.199,26.405-76.418,70.135-88.394,119.975
			c-1.317,5.477,2.057,10.984,7.534,12.3c0.801,0.193,1.602,0.285,2.392,0.285c4.606,0,8.785-3.143,9.909-7.819
			c10.703-44.538,39.505-83.622,79.021-107.23C153.727,315.259,155.305,308.997,152.416,304.162z" style="fill:#1E3A8A;"/>
	</g>
</g>
<g>
	<g>
		<path d="M236.809,273.563c-15.038,0-30.016,1.745-44.518,5.187c-5.481,1.3-8.869,6.798-7.568,12.279
			c1.113,4.69,5.296,7.846,9.915,7.846c0.78,0,1.572-0.09,2.363-0.278c12.961-3.076,26.354-4.636,39.807-4.636
			c5.633,0,10.199-4.566,10.199-10.199S242.442,273.563,236.809,273.563z" style="fill:#1E3A8A;"/>
	</g>
</g>
<g>
	<g>
		<path d="M404.816,308.113c-1.685-1.797-3.393-3.579-5.143-5.329c-29.761-29.762-66.236-50.37-106.007-60.423
			c42.048-20.964,71.004-64.411,71.004-114.5C364.669,57.358,307.311,0,236.809,0S108.948,57.358,108.948,127.86
			c0,50.089,28.957,93.536,71.004,114.5c-39.771,10.053-76.245,30.661-106.007,60.423c-43.502,43.502-67.46,101.341-67.46,162.864
			c0,5.633,4.566,10.199,10.199,10.199h309.072C344.472,497.944,372.406,512,403.564,512c56.216,0,101.951-45.735,101.951-101.951
			C505.515,354.251,460.456,308.787,404.816,308.113z M129.346,127.86c0-59.254,48.208-107.462,107.463-107.462
			c59.255,0,107.462,48.208,107.462,107.462c0,59.254-48.208,107.463-107.462,107.463
			C177.555,235.323,129.346,187.116,129.346,127.86z M27.128,455.448c5.338-111.036,97.347-199.727,209.681-199.727
			c54.695,0,104.564,21.035,141.963,55.431c-44.274,11.103-77.159,51.23-77.159,98.897c0,16.302,3.852,31.72,10.686,45.4H27.128z
			 M403.564,491.602c-44.968,0-81.553-36.585-81.553-81.553c0-44.968,36.585-81.553,81.553-81.553
			c44.968,0,81.553,36.585,81.553,81.553C485.117,455.017,448.532,491.602,403.564,491.602z" style="fill:#1E3A8A;"/>
	</g>
</g>
<g>
	<g>
		<path d="M456.996,404.572l-32.881-32.883c-3.983-3.983-10.441-3.983-14.425,0c-3.983,3.983-3.983,10.441,0,14.425l15.584,15.584
			h-63.457c-5.633,0-10.199,4.566-10.199,10.199c0,5.633,4.566,10.199,10.199,10.199h63.231l-15.358,15.358
			c-3.983,3.983-3.984,10.441,0,14.424c1.992,1.992,4.602,2.987,7.212,2.987s5.221-0.996,7.212-2.987l32.882-32.882
			c1.912-1.912,2.987-4.507,2.987-7.212C459.983,409.079,458.908,406.484,456.996,404.572z" style="fill:#1E3A8A;"/>
	</g>
</g>
<g>
</g>
<g>
</g>
<g>
</g>
<g>
</g>
<g>
</g>
<g>
</g>
<g>
</g>
<g>
</g>
<g>
</g>
<g>
</g>
<g>
</g>
<g>
</g>
<g>
</g>
<g>
</g>
<g>
</g>
</svg>
