<?xml version="1.0" ?>
<svg width="32px" height="32px" viewBox="0 0 32 32" xmlns="http://www.w3.org/2000/svg">
    <title/>
    <path
        d="M24.729,9.647,21,9.129V7a1,1,0,0,0-1-1H4A1,1,0,0,0,3,7V20a1,1,0,0,0,1,1H6.351A3.459,3.459,0,0,0,6,22.5a3.5,3.5,0,0,0,7,0,3.459,3.459,0,0,0-.351-1.5h6.7A3.459,3.459,0,0,0,19,22.5a3.5,3.5,0,0,0,7,0,3.459,3.459,0,0,0-.351-1.5H29a1,1,0,0,0,.994-1.112l-.615-5.47A5.429,5.429,0,0,0,24.729,9.647Zm-.275,1.981A3.423,3.423,0,0,1,27.25,14H21V11.148ZM5,8H19V19H5Zm6,14.5A1.5,1.5,0,1,1,9.5,21,1.5,1.5,0,0,1,11,22.5Zm13,0A1.5,1.5,0,1,1,22.5,21,1.5,1.5,0,0,1,24,22.5ZM21,19V16h6.543l.337,3Z"/>
</svg>
