<?xml version="1.0" encoding="iso-8859-1"?>
<!-- Generator: Adobe Illustrator 18.0.0, SVG Export Plug-In . SVG Version: 6.00 Build 0)  -->
<!DOCTYPE svg PUBLIC "-//W3C//DTD SVG 1.1//EN" "http://www.w3.org/Graphics/SVG/1.1/DTD/svg11.dtd">
<svg version="1.1" id="Capa_1" xmlns="http://www.w3.org/2000/svg" xmlns:xlink="http://www.w3.org/1999/xlink" x="0px" y="0px"
	 viewBox="0 0 60 60" style="enable-background:new 0 0 60 60;" xml:space="preserve">
<g>
	<path d="M45.5,34.051V7c0-0.553-0.448-1-1-1h-8V4c0-0.553-0.448-1-1-1h-6V1c0-0.553-0.448-1-1-1h-9c-0.552,0-1,0.447-1,1v2h-6
		c-0.552,0-1,0.447-1,1v2h-8c-0.552,0-1,0.447-1,1v50c0,0.553,0.448,1,1,1h34.104c2.002,1.26,4.362,2,6.896,2
		c7.168,0,13-5.832,13-13C57.5,40.169,52.201,34.564,45.5,34.051z M20.5,2h7v2v2h-7V4V2z M13.5,5h5v2c0,0.553,0.448,1,1,1h9
		c0.552,0,1-0.447,1-1V5h5v2v2h-21V7V5z M4.5,56V8h7v2c0,0.553,0.448,1,1,1h23c0.552,0,1-0.447,1-1V8h7v26.038
		c-0.057,0.004-0.112,0.016-0.169,0.021c-0.195,0.018-0.387,0.046-0.579,0.073c-0.229,0.031-0.459,0.062-0.684,0.104
		c-0.193,0.037-0.381,0.083-0.571,0.128c-0.219,0.052-0.438,0.105-0.652,0.168c-0.187,0.055-0.37,0.118-0.553,0.181
		c-0.21,0.072-0.418,0.146-0.623,0.229c-0.179,0.072-0.355,0.15-0.531,0.23c-0.2,0.091-0.397,0.185-0.591,0.285
		c-0.171,0.088-0.339,0.181-0.505,0.277c-0.188,0.108-0.373,0.22-0.555,0.338c-0.162,0.104-0.321,0.211-0.477,0.322
		c-0.177,0.125-0.349,0.255-0.519,0.389c-0.15,0.118-0.298,0.237-0.442,0.361c-0.165,0.142-0.325,0.289-0.482,0.439
		c-0.137,0.13-0.273,0.261-0.405,0.397c-0.152,0.157-0.297,0.32-0.441,0.485c-0.124,0.142-0.248,0.283-0.365,0.43
		c-0.138,0.172-0.267,0.35-0.396,0.529c-0.109,0.152-0.22,0.302-0.323,0.459c-0.123,0.187-0.235,0.38-0.349,0.573
		c-0.093,0.16-0.189,0.317-0.276,0.48c-0.107,0.203-0.202,0.412-0.299,0.62c-0.076,0.165-0.157,0.327-0.227,0.496
		c-0.09,0.219-0.167,0.444-0.245,0.668c-0.059,0.167-0.123,0.332-0.175,0.502c-0.073,0.24-0.129,0.486-0.188,0.731
		c-0.039,0.163-0.086,0.322-0.12,0.487c-0.055,0.275-0.091,0.557-0.128,0.838c-0.019,0.142-0.047,0.28-0.062,0.423
		C31.523,46.13,31.5,46.562,31.5,47c0,0.435,0.023,0.867,0.066,1.294c0.016,0.162,0.048,0.318,0.07,0.479
		c0.036,0.263,0.068,0.526,0.12,0.785c0.035,0.175,0.085,0.345,0.127,0.518c0.058,0.239,0.112,0.479,0.184,0.714
		c0.049,0.159,0.11,0.313,0.165,0.47c0.084,0.243,0.167,0.487,0.266,0.724c0.055,0.133,0.12,0.26,0.18,0.39
		c0.115,0.254,0.232,0.507,0.363,0.753c0.058,0.107,0.123,0.21,0.184,0.315c0.148,0.259,0.298,0.515,0.464,0.763
		c0.061,0.091,0.128,0.177,0.191,0.267c0.176,0.25,0.356,0.498,0.551,0.736c0.072,0.088,0.15,0.17,0.224,0.256
		c0.155,0.18,0.303,0.364,0.468,0.536H4.5z M44.5,58c-2.258,0-4.359-0.686-6.107-1.857c-0.341-0.228-0.663-0.476-0.972-0.736
		c-0.108-0.091-0.21-0.19-0.314-0.286c-0.197-0.179-0.388-0.363-0.57-0.554c-0.117-0.123-0.23-0.248-0.341-0.375
		c-0.164-0.188-0.318-0.384-0.468-0.583c-0.096-0.127-0.195-0.251-0.286-0.382c-0.221-0.321-0.429-0.651-0.615-0.993
		c-0.043-0.08-0.077-0.165-0.118-0.245c-0.146-0.286-0.282-0.576-0.403-0.874c-0.052-0.13-0.097-0.263-0.145-0.396
		c-0.094-0.262-0.18-0.527-0.255-0.796c-0.038-0.139-0.075-0.277-0.108-0.418c-0.067-0.285-0.119-0.574-0.163-0.865
		c-0.019-0.125-0.043-0.248-0.057-0.375C33.531,47.848,33.5,47.426,33.5,47c0-6.065,4.935-11,11-11s11,4.935,11,11
		S50.565,58,44.5,58z" style="fill:#1E3A8A;"/>
	<path d="M50.5,46h-5v-5c0-0.553-0.448-1-1-1s-1,0.447-1,1v5h-5c-0.552,0-1,0.447-1,1s0.448,1,1,1h5v5c0,0.553,0.448,1,1,1
		s1-0.447,1-1v-5h5c0.552,0,1-0.447,1-1S51.052,46,50.5,46z" style="fill:#1E3A8A;"/>
	<path d="M9.5,18h13c0.552,0,1-0.447,1-1s-0.448-1-1-1h-13c-0.552,0-1,0.447-1,1S8.948,18,9.5,18z" style="fill:#1E3A8A;"/>
	<path d="M22.5,46h-13c-0.552,0-1,0.447-1,1s0.448,1,1,1h13c0.552,0,1-0.447,1-1S23.052,46,22.5,46z" style="fill:#1E3A8A;"/>
	<path d="M9.5,24h29c0.552,0,1-0.447,1-1s-0.448-1-1-1h-29c-0.552,0-1,0.447-1,1S8.948,24,9.5,24z" style="fill:#1E3A8A;"/>
	<path d="M9.5,36h24c0.552,0,1-0.447,1-1s-0.448-1-1-1h-24c-0.552,0-1,0.447-1,1S8.948,36,9.5,36z" style="fill:#1E3A8A;"/>
	<path d="M28.5,40h-19c-0.552,0-1,0.447-1,1s0.448,1,1,1h19c0.552,0,1-0.447,1-1S29.052,40,28.5,40z" style="fill:#1E3A8A;"/>
	<path d="M9.5,30h14c0.552,0,1-0.447,1-1s-0.448-1-1-1h-14c-0.552,0-1,0.447-1,1S8.948,30,9.5,30z" style="fill:#1E3A8A;"/>
	<path d="M38.5,28h-7c-0.552,0-1,0.447-1,1s0.448,1,1,1h7c0.552,0,1-0.447,1-1S39.052,28,38.5,28z" style="fill:#1E3A8A;"/>
	<path d="M26.79,28.29c-0.18,0.189-0.29,0.449-0.29,0.71c0,0.26,0.11,0.52,0.29,0.71C26.98,29.899,27.24,30,27.5,30
		c0.26,0,0.52-0.101,0.71-0.29c0.18-0.19,0.29-0.45,0.29-0.71c0-0.261-0.11-0.521-0.29-0.71C27.84,27.92,27.16,27.92,26.79,28.29z"
          style="fill:#1E3A8A;" />
</g>
<g>
</g>
<g>
</g>
<g>
</g>
<g>
</g>
<g>
</g>
<g>
</g>
<g>
</g>
<g>
</g>
<g>
</g>
<g>
</g>
<g>
</g>
<g>
</g>
<g>
</g>
<g>
</g>
<g>
</g>
</svg>
